<?xml version='1.0' encoding='iso-8859-1'?>
<svg version="1.1" xmlns="http://www.w3.org/2000/svg" viewBox="0 0 463 463" xmlns:xlink="http://www.w3.org/1999/xlink" enable-background="new 0 0 463 463">
  <path d="m455.5,404c-14.084,0-27.949-7.601-44.002-16.403-13.304-7.293-27.779-15.227-44.502-19.786l-.052-150.046c3.524-1.191 6.676-3.192 9.231-5.786l51.928,25.257c1.056,0.514 2.174,0.757 3.275,0.757 2.78,0 5.452-1.553 6.75-4.221 1.812-3.725 0.261-8.213-3.464-10.025l-51.919-25.253c0.125-0.981 0.197-1.979 0.197-2.994 0-10.336-6.71-19.128-16-22.266v-57.734c0-4.142-3.358-7.5-7.5-7.5s-7.5,3.358-7.5,7.5v57.734c-9.29,3.138-16,11.93-16,22.266 0,1.015 0.072,2.013 0.197,2.994l-51.919,25.253c-3.725,1.812-5.276,6.3-3.464,10.025 1.298,2.669 3.969,4.221 6.75,4.221 1.101,0 2.219-0.243 3.275-0.757l51.928-25.257c2.556,2.595 5.71,4.597 9.236,5.787l.051,147.048c-4.148-0.524-8.429-0.814-12.859-0.814-15.053,0-29.595,3.223-45.671,10.113-11.701-6.391-24.362-12.181-38.465-15.415v-19.198c0-10.336-6.71-19.128-16-22.266v-163.468c3.525-1.19 6.678-3.192 9.233-5.787l51.928,25.257c1.056,0.514 2.174,0.757 3.275,0.757 2.78,0 5.452-1.553 6.75-4.221 1.812-3.725 0.261-8.213-3.464-10.025l-51.919-25.253c0.125-0.981 0.197-1.979 0.197-2.994 0-10.336-6.71-19.128-16-22.266v-57.734c0-4.142-3.358-7.5-7.5-7.5s-7.5,3.358-7.5,7.5v57.734c-9.29,3.138-16,11.93-16,22.266 0,1.015 0.072,2.013 0.197,2.994l-51.919,25.253c-3.725,1.812-5.276,6.3-3.464,10.025 1.298,2.669 3.969,4.221 6.75,4.221 1.101,0 2.219-0.243 3.275-0.757l51.928-25.257c2.556,2.595 5.709,4.596 9.233,5.787v163.469c-9.29,3.138-16,11.93-16,22.266v19.198c-14.103,3.234-26.764,9.024-38.465,15.415-16.077-6.891-30.619-10.114-45.672-10.114-4.453,0-8.754,0.293-12.922,0.822v-147.056c3.525-1.191 6.678-3.192 9.234-5.787l51.928,25.257c1.056,0.514 2.174,0.757 3.275,0.757 2.78,0 5.452-1.553 6.75-4.221 1.812-3.725 0.261-8.213-3.464-10.025l-51.919-25.253c0.125-0.981 0.197-1.979 0.197-2.994 0-10.336-6.71-19.128-16-22.266v-57.734c0-4.142-3.358-7.5-7.5-7.5s-7.5,3.358-7.5,7.5v57.734c-9.29,3.138-16,11.93-16,22.266 0,1.015 0.072,2.013 0.197,2.994l-51.92,25.253c-3.725,1.812-5.276,6.3-3.464,10.025 1.298,2.669 3.969,4.221 6.75,4.221 1.101,0 2.219-0.243 3.275-0.757l51.928-25.257c2.556,2.595 5.709,4.596 9.233,5.787v150.062c-16.697,4.562-31.152,12.485-44.439,19.769-16.054,8.802-29.919,16.403-44.003,16.403-4.142,0-7.5,3.358-7.5,7.5s3.358,7.5 7.5,7.5h448c4.142,0 7.5-3.358 7.5-7.5s-3.358-7.5-7.5-7.5zm-96.059-217c4.687,0 8.5,3.813 8.5,8.5s-3.813,8.5-8.5,8.5-8.5-3.813-8.5-8.5 3.813-8.5 8.5-8.5zm-256,0c4.687,0 8.5,3.813 8.5,8.5s-3.813,8.5-8.5,8.5-8.5-3.813-8.5-8.5 3.813-8.5 8.5-8.5zm264.5,217h-8.441c-2.856,0-5.703-0.314-8.559-0.884v-7.616c0-4.687 3.813-8.5 8.5-8.5s8.5,3.813 8.5,8.5v8.5zm-273,0v-8.5c2.84217e-14-4.687 3.813-8.5 8.5-8.5s8.5,3.813 8.5,8.5v7.636c-2.816,0.555-5.625,0.864-8.441,0.864h-8.559zm136.559-33c28.067,0 50.291,13.292 71.782,26.145 3.917,2.343 7.789,4.657 11.642,6.855h-166.848c3.853-2.198 7.725-4.512 11.642-6.855 21.491-12.853 43.715-26.145 71.782-26.145zm107.636,8c1.185,0 2.355,0.032 3.517,0.078-4.148,4.24-6.712,10.036-6.712,16.422v2.553c-7.941-3.604-16.152-8.513-24.96-13.781-0.261-0.156-0.525-0.313-0.786-0.47 9.965-3.25 19.374-4.802 28.941-4.802zm-107.636-256c4.687,0 8.5,3.813 8.5,8.5s-3.813,8.5-8.5,8.5-8.5-3.813-8.5-8.5 3.813-8.5 8.5-8.5zm-8.5,216.5c0-4.687 3.813-8.5 8.5-8.5s8.5,3.813 8.5,8.5v16.855c-2.779-0.23-5.61-0.355-8.5-0.355s-5.721,0.125-8.5,0.355v-16.855zm-70.195,44.302c-0.262,0.157-0.525,0.314-0.786,0.47-8.852,5.294-17.1,10.227-25.078,13.836v-2.608c0-6.384-2.562-12.178-6.708-16.417 1.199-0.05 2.407-0.083 3.63-0.083 9.568,5.68434e-14 18.977,1.552 28.942,4.802zm-94.092,16.948c7.181-3.937 14.453-7.921 22.046-11.387-0.53,1.958-0.818,4.014-0.818,6.137v8.5h-27.186c1.976-1.068 3.96-2.155 5.958-3.25zm324.228,3.25v-8.5c0-2.146-0.295-4.223-0.836-6.199 7.642,3.48 14.957,7.489 22.181,11.449 1.998,1.095 3.982,2.182 5.959,3.25h-27.304z"/>
</svg>
